<svg width="110" height="110" viewBox="0 0 110 110" fill="none" xmlns="http://www.w3.org/2000/svg">
    <circle cx="55" cy="55" r="54" stroke="#fff" stroke-width="2"/>
    <ellipse cx="55" cy="56.5" rx="15" ry="14.5" fill="white"/>
    <path d="M42 75C47.9091 75 49.0909 79.1818 55 79.1818C60.9091 79.1818 62.0909 75 68 75C73.9091 75 81 78.6591 81 92.7727C81 96.5364 77.0606 97.8258 75.0909 98H55H34.9091C32.9394 97.8258 29 96.5364 29 92.7727C29 78.6591 36.0909 75 42 75Z" fill="white"/>
    <ellipse cx="88.5" cy="40" rx="8.5" ry="9" fill="white"/>
    <path d="M81.5 51C84.9091 51 85.5909 53.7273 89 53.7273C92.4091 53.7273 93.0909 51 96.5 51C99.9091 51 104 53.3864 104 62.5909C104 65.0455 101.727 65.8864 100.591 66H89H77.4091C76.2727 65.8864 74 65.0455 74 62.5909C74 53.3864 78.0909 51 81.5 51Z" fill="white"/>
    <ellipse cx="21.5" cy="40" rx="8.5" ry="9" fill="white"/>
    <path d="M13.5 51C16.9091 51 17.5909 53.7273 21 53.7273C24.4091 53.7273 25.0909 51 28.5 51C31.9091 51 36 53.3864 36 62.5909C36 65.0455 33.7273 65.8864 32.5909 66H21H9.40909C8.27273 65.8864 6 65.0455 6 62.5909C6 53.3864 10.0909 51 13.5 51Z" fill="white"/>
</svg>
