<svg width="110" height="111" viewBox="0 0 110 111" fill="none" xmlns="http://www.w3.org/2000/svg">
    <circle cx="55" cy="55.4331" r="54" fill="#A177AF" stroke="#A177AF" stroke-width="2"/>
    <circle cx="56.3694" cy="91.7104" r="9.15635" transform="rotate(-3.02272 56.3694 91.7104)" fill="white" stroke="white"/>
    <path d="M62.9368 91.3637C63.1284 94.9932 60.3573 98.0855 56.7531 98.2758C53.1489 98.4661 50.0675 95.6828 49.8759 92.0534C49.6842 88.4239 52.4553 85.3316 56.0595 85.1413C59.6638 84.951 62.7451 87.7342 62.9368 91.3637Z" fill="#A177AF" stroke="white"/>
    <path d="M51.583 59.7797L81.7632 58.186L81.4313 54.6973L64.0961 55.6127C63.9818 55.5449 54.3057 49.9735 16.5156 28.23C32.4695 44.6308 46.5414 56.0968 51.583 59.7797Z" fill="white" stroke="white"/>
    <circle cx="90.9252" cy="55.5616" r="9.08264" transform="rotate(-3.02272 90.9252 55.5616)" fill="white" stroke="white"/>
    <circle cx="90.9257" cy="55.5614" r="6.5027" transform="rotate(-3.02272 90.9257 55.5614)" fill="#A177AF" stroke="white"/>
    <path d="M56.2452 66.9889L57.1219 83.5918L53.9276 84.6055L53.0063 67.1599L56.2452 66.9889Z" fill="white" stroke="white"/>
    <path d="M45.6277 35.7174L53.2579 42.5662L35.4385 9.84741L45.6277 35.7174Z" fill="white" stroke="white"/>
    <circle cx="48.8117" cy="52.0278" r="2.74335" transform="rotate(-3.02272 48.8117 52.0278)" fill="#A1e7AF" stroke="white"/>
</svg>
