<svg width="110" height="110"  viewBox="0 0 66 75" fill="none" xmlns="http://www.w3.org/2000/svg">
    <path d="M49 16.5C49 25.0325 41.8649 32 33 32C24.1351 32 17 25.0325 17 16.5C17 7.96752 24.1351 1 33 1C41.8649 1 49 7.96752 49 16.5Z" fill="#A177AF" stroke="#A177AF" stroke-width="2"/>
    <path d="M65 58.5C65 62.4735 61.7528 66.3401 55.8873 69.2728C50.0816 72.1757 41.9911 74 33 74C24.0089 74 15.9184 72.1757 10.1127 69.2728C4.24717 66.3401 1 62.4735 1 58.5C1 54.5265 4.24717 50.6599 10.1127 47.7272C15.9184 44.8243 24.0089 43 33 43C41.9911 43 50.0816 44.8243 55.8873 47.7272C61.7528 50.6599 65 54.5265 65 58.5Z" fill="#A177AF" stroke="#A177AF" stroke-width="2"/>
</svg>
