<svg xmlns="http://www.w3.org/2000/svg" width="110" height="110"  viewBox="0 0 1480 1480">
    <defs>
        <style>
            .cls-1{}.cls-2{}
        </style>
    </defs>
    <path
            stroke="#A177AF"
            stroke-miterlimit="10"
            stroke-width="4px"
            fill="none"
            d="M767.82,9.12h-45C333.23,9.12,17.41,325,17.41,714.53v45c0,389.58,315.82,705.4,705.41,705.4h45c389.59,0,705.41-315.82,705.41-705.4v-45C1473.23,325,1157.41,9.12,767.82,9.12ZM596.46,1329.56c-40.64-22.17,17.25-89.9,71.43-123.15,45.24-27.76,36.4,8,32.25,20.57a39.36,39.36,0,0,0-2.08,13.44c.42,14.26,9,26.46,48.65,38.65C794.74,1293.85,637.11,1351.73,596.46,1329.56Zm-295.92-132c-17.44-22.14-7.63-49.34,8.32-72.46a163.91,163.91,0,0,1,37.66-38.8,168,168,0,0,1,65.62-28.91c38.48-8,126-20,111.75,41.1-18.14,77.91-149.14,115.86-149.14,115.86C347.58,1220.33,318,1219.72,300.54,1197.58Z"/>
    <path
            fill="#A177AF"
            d="M599.8,225.78c-711.07,285-15,312,135,327s708.07,78,153,390-198,33-336,42-429,147-309,222,261,9,411-75c63.83-35.75,172.21-97.57,272.89-167.2,82.12-56.8,159.13-118.8,202.67-176.1a115.42,115.42,0,0,0-8.64-150.11C1062.8,578.31,1003.59,549.78,612,509.57q-52-5.35-104.21-9.25c-94.64-7-392.24-44.57,47.06-229.54,513.05-216,633.06-129,609.06,72C1163.86,342.79,1310.87-59.25,599.8,225.78Zm-75.91,872.73c-18.14,77.91-149.14,115.86-149.14,115.86-27.17,6-56.77,5.35-74.21-16.79s-7.63-49.34,8.32-72.46a163.91,163.91,0,0,1,37.66-38.8,168,168,0,0,1,65.62-28.91C450.62,1049.39,538.12,1037.43,523.89,1098.51Z"/>
    <path
            fill="none"
            d="M523.89,1098.51c-18.14,77.91-149.14,115.86-149.14,115.86-27.17,6-56.77,5.35-74.21-16.79s-7.63-49.34,8.32-72.46a163.91,163.91,0,0,1,37.66-38.8,168,168,0,0,1,65.62-28.91C450.62,1049.39,538.12,1037.43,523.89,1098.51Z"/>
    <path   fill="#A177AF"
            d="M1295.87,768.82c116-42.43-382.6,260.13-462,321,0,0-139.52,107.81-65.57,135.53a61.63,61.63,0,0,0,12.76,3.2c82,10.41,278,28.34-123,135.91-60.5,14.5-89.59,14.89-110.37,16.35-80.55,5.67-198.81-21.42,358.21-378C905.84,1002.85,1172.86,813.83,1295.87,768.82ZM596.46,1329.56c40.65,22.17,198.28-35.71,150.25-50.49-39.62-12.19-48.23-24.39-48.65-38.65a39.36,39.36,0,0,1,2.08-13.44c4.15-12.57,13-48.33-32.25-20.57C613.71,1239.66,555.82,1307.39,596.46,1329.56Z"/>
    <path fill="none"
          d="M596.46,1329.56c-40.64-22.17,17.25-89.9,71.43-123.15,45.24-27.76,36.4,8,32.25,20.57a39.36,39.36,0,0,0-2.08,13.44c.42,14.26,9,26.46,48.65,38.65C794.74,1293.85,637.11,1351.73,596.46,1329.56Z"/>
</svg>
