<svg xmlns="http://www.w3.org/2000/svg" viewBox="0 0 1480 1480"><defs><style>.cls-1,.cls-2{fill:none;stroke-miterlimit:10;stroke-width:15px;}.cls-1{stroke:#956dad;}.cls-2{stroke:#000;}</style></defs><g id="Agendamento"><path class="cls-1" d="M778.82,648.38a95.16,95.16,0,1,1-35-6.67A94.84,94.84,0,0,1,778.82,648.38Z"/><circle class="cls-2" cx="743.82" cy="736.53" r="722.46"/><circle cx="1410.47" cy="736.53" r="35"/><path d="M994.69,879.47A39.28,39.28,0,0,1,949,943.36L781.55,823.54a95.06,95.06,0,0,0,52.83-58.79Z"/><path d="M778.82,196.94V648.38a95.16,95.16,0,0,0-70,0V196.94a35,35,0,1,1,70,0Z"/><circle cx="743.82" cy="69.88" r="35"/><circle cx="743.82" cy="1403.18" r="35"/><circle cx="77.17" cy="736.53" r="35"/><path class="cls-2" d="M778.82,648.38a95.16,95.16,0,1,1-35-6.67A94.84,94.84,0,0,1,778.82,648.38Z"/></g></svg>