<svg xmlns="http://www.w3.org/2000/svg" viewBox="0 0 1480 1480"><defs><style>.cls-1{fill:none;stroke:#000;stroke-miterlimit:10;stroke-width:15px;}.cls-2{fill:#956dad;}</style></defs><g id="Clientes"><circle class="cls-1" cx="743.82" cy="736.53" r="722.46"/><circle cx="743.82" cy="763.06" r="188.18"/><circle class="cls-2" cx="327.82" cy="551.94" r="113.65"/><path d="M327.82,869.14H484.57s35.85-.95,35.85-35.85c0-133.24-85.66-136.9-85.66-136.9-90,0-50.56,31-106.94,31s-16.95-31-106.94-31c0,0-85.65,3.66-85.65,136.9,0,34.9,35.85,35.85,35.85,35.85Z"/><circle cx="1169.24" cy="551.94" r="113.65"/><path class="cls-2" d="M1169.24,869.14H1326s35.85-.95,35.85-35.85c0-133.24-85.65-136.9-85.65-136.9-90,0-50.57,31-106.94,31s-17-31-107-31c0,0-85.65,3.66-85.65,136.9,0,34.9,35.85,35.85,35.85,35.85Z"/><circle cx="327.82" cy="551.94" r="113.65"/><path d="M743.82,1281.65H1005.4s59.83-1.59,59.83-59.83c0-222.35-142.94-228.47-142.94-228.47-150.18,0-84.38,51.65-178.47,51.65s-28.29-51.65-178.47-51.65c0,0-142.94,6.12-142.94,228.47,0,58.24,59.83,59.83,59.83,59.83Z"/><path d="M1169.24,869.14H1326s35.85-.95,35.85-35.85c0-133.24-85.65-136.9-85.65-136.9-90,0-50.57,31-106.94,31s-17-31-107-31c0,0-85.65,3.66-85.65,136.9,0,34.9,35.85,35.85,35.85,35.85Z"/></g></svg>