<svg xmlns="http://www.w3.org/2000/svg" viewBox="0 0 1480 1480"><g id="Clientes"><path d="M135.23,833.29c0,34.9,35.85,35.85,35.85,35.85H484.57s35.85-.95,35.85-35.85c0-133.24-85.66-136.9-85.66-136.9-90,0-50.56,31-106.94,31s-16.95-31-106.94-31C220.88,696.39,135.23,700.05,135.23,833.29Zm287.18,388.53c0,58.24,59.83,59.83,59.83,59.83H1005.4s59.83-1.59,59.83-59.83c0-222.35-142.94-228.47-142.94-228.47-150.18,0-84.38,51.65-178.47,51.65s-28.29-51.65-178.47-51.65C565.35,993.35,422.41,999.47,422.41,1221.82ZM976.64,833.29c0,34.9,35.85,35.85,35.85,35.85H1326s35.85-.95,35.85-35.85c0-133.24-85.65-136.9-85.65-136.9-90,0-50.57,31-106.94,31s-17-31-107-31C1062.29,696.39,976.64,700.05,976.64,833.29ZM214.17,551.94A113.65,113.65,0,1,0,327.82,438.29,113.65,113.65,0,0,0,214.17,551.94ZM555.64,763.06c0,103.93,84.25,188.18,188.18,188.18S932,867,932,763.06,847.75,574.88,743.82,574.88,555.64,659.13,555.64,763.06Zm499.95-211.12a113.65,113.65,0,1,0,113.65-113.65A113.65,113.65,0,0,0,1055.59,551.94ZM743.82,14.07c399,0,722.46,323.46,722.46,722.46S1142.82,1459,743.82,1459,21.36,1135.53,21.36,736.53,344.82,14.07,743.82,14.07Z"/></g></svg>