<svg xmlns="http://www.w3.org/2000/svg" viewBox="0 0 1480 1480"><defs><style>.cls-1{fill:none;}</style></defs><g id="Excluir2"><path d="M753.63,532.53v78.84a25,25,0,0,1,25,25v423.76a25,25,0,0,1-25,25v190.92H891.25c179.53,0,179.38-128.54,179.38-128.54l39.69-615ZM922.9,1060.14a25,25,0,0,1-25,25h0a25,25,0,0,1-25-25V636.38a25,25,0,0,1,25-25h0a25,25,0,0,1,25,25Z"/><path d="M755.63,611.37V532.53H398.93l39.69,615s-.15,128.54,179.38,128.54H755.62V1085.16a25,25,0,0,1-25-25V636.38A25,25,0,0,1,755.63,611.37ZM618,1060.14a25,25,0,0,1-25,25h0a25,25,0,0,1-25-25V636.38a25,25,0,0,1,25-25h0a25,25,0,0,1,25,25Z"/><rect x="251.59" y="406.7" width="1006.07" height="125.83" rx="62.91"/><rect x="251.59" y="406.7" width="1006.07" height="125.83" rx="62.91"/><rect x="534.84" y="307.88" width="439.57" height="137.12" rx="62.91"/><path class="cls-1" d="M617,636.38v423.76a25,25,0,0,1-25,25h0a25,25,0,0,1-25-25V636.38a25,25,0,0,1,25-25h0A25,25,0,0,1,617,636.38Z"/><path class="cls-1" d="M743.82,14.07c-399,0-722.46,323.46-722.46,722.46S344.82,1459,743.82,1459s722.46-323.46,722.46-722.46S1142.82,14.07,743.82,14.07ZM923.9,1060.14a25,25,0,0,1-25,25h0a25,25,0,0,1-25-25V636.38a25,25,0,0,1,25-25h0a25,25,0,0,1,25,25Zm-306.9,0a25,25,0,0,1-25,25h0a25,25,0,0,1-25-25V636.38a25,25,0,0,1,25-25h0a25,25,0,0,1,25,25Zm119.94,17.69a24.93,24.93,0,0,1-7.33-17.69V636.38a25,25,0,0,1,50,0v423.76a25,25,0,0,1-25,25h0A24.89,24.89,0,0,1,736.94,1077.83Z"/><rect class="cls-1" x="873.87" y="611.37" width="50.03" height="473.79" rx="25.01"/><path class="cls-1" d="M779.64,636.38v423.76a25,25,0,0,1-25,25h0a25,25,0,0,1-25-25V636.38a25,25,0,0,1,50,0Z"/></g></svg>