<svg xmlns="http://www.w3.org/2000/svg" viewBox="0 0 1480 1480"><g id="Excluir"><path d="M743.82,14.07c399,0,722.46,323.46,722.46,722.46S1142.82,1459,743.82,1459,21.36,1135.53,21.36,736.53,344.82,14.07,743.82,14.07ZM1240.76,471v-2.78a61.52,61.52,0,0,0-61.52-61.53H947.84a61.6,61.6,0,0,0,1.87-15.1V368.4a61.53,61.53,0,0,0-61.53-61.52H599.46a61.53,61.53,0,0,0-61.53,61.52v23.2a61.6,61.6,0,0,0,1.87,15.1h-239a61.52,61.52,0,0,0-61.52,61.53V471a61.52,61.52,0,0,0,61.52,61.52h97.17l39.95,619.12s4.94,124.43,129.09,124.43H942.28c124.15,0,129.09-124.43,129.09-124.43l40-619.12h67.92A61.52,61.52,0,0,0,1240.76,471Z"/><path d="M898.89,611.37a25,25,0,0,1,25,25v423.76a25,25,0,0,1-25,25h0a25,25,0,0,1-25-25V636.38a25,25,0,0,1,25-25Z"/><path d="M779.64,636.38v423.76a25,25,0,0,1-25,25h0a25,25,0,0,1-25-25V636.38a25,25,0,0,1,25-25h0A25,25,0,0,1,779.64,636.38Z"/><path d="M592,611.37a25,25,0,0,1,25,25v423.76a25,25,0,0,1-25,25h0a25,25,0,0,1-25-25V636.38a25,25,0,0,1,25-25Z"/></g></svg>