<svg xmlns="http://www.w3.org/2000/svg" viewBox="0 0 1480 1480"><g id="Parceiros"><path d="M1106.12,601A115.62,115.62,0,1,1,996.51,753.55l14.61-.79V699.59l-19.5.94A115.63,115.63,0,0,1,1106.12,601Zm87.12,115.62a87.12,87.12,0,1,0-87.12,87.11A87.12,87.12,0,0,0,1193.24,716.65Z"/><path d="M1011.12,699.59v53.17l-14.61.79a116.37,116.37,0,0,1-4.89-53Z"/><path d="M996.51,753.55l-356,19.33L226.18,400.53l8.94-12.29,561.41,321.7,195.09-9.41a116.37,116.37,0,0,0,4.89,53ZM637.35,674.94a25.41,25.41,0,1,0-25.41,25.41A25.41,25.41,0,0,0,637.35,674.94Z"/><path d="M714.89,1024.18a115.56,115.56,0,1,1-49.58,4.46l1.76,29.68a87.12,87.12,0,1,0,49.55-5Z"/><path d="M714.89,1024.18l1.73,29.12a87.38,87.38,0,0,0-49.55,5l-1.76-29.68a116.38,116.38,0,0,1,49.58-4.46Z"/><path d="M704.22,843.75l10.67,180.43a116.38,116.38,0,0,0-49.58,4.46l-10.77-182Z"/><polygon points="461.47 172.53 669.94 559.82 660.06 570.18 569.24 489.71 446.41 180.53 461.47 172.53"/></g></svg>
