<svg xmlns="http://www.w3.org/2000/svg" viewBox="0 0 1480 1480"><g id="Parceiros"><path d="M716.62,1053.3a87.38,87.38,0,1,1-16.36-1.54A87.13,87.13,0,0,1,716.62,1053.3Z"/><circle cx="611.94" cy="674.94" r="25.41"/><path d="M1106.12,629.53A87.12,87.12,0,1,1,1019,716.65,87.12,87.12,0,0,1,1106.12,629.53Z"/><path d="M996.51,753.55a115.67,115.67,0,1,0-4.89-53l-195.09,9.41L235.12,388.24l-8.94,12.29L640.53,772.88ZM743.82,14.07c399,0,722.46,323.46,722.46,722.46S1142.82,1459,743.82,1459,21.36,1135.53,21.36,736.53,344.82,14.07,743.82,14.07Zm72.06,1124.81a115.64,115.64,0,0,0-101-114.7L704.22,843.75l-49.68,2.94,10.77,182a115.63,115.63,0,1,0,150.57,110.24ZM669.94,559.82,461.47,172.53l-15.06,8L569.24,489.71l90.82,80.47Z"/></g></svg>