<svg xmlns="http://www.w3.org/2000/svg" viewBox="0 0 1480 1480">
    <g>
        <path d="M1106.12 601a115.62 115.62 0 11-109.61 152.55l14.61-.79v-53.17l-19.5.94a115.63 115.63 0 01114.5-99.53zm87.12 115.62a87.12 87.12 0 10-87.12 87.11 87.12 87.12 0 0087.12-87.08z" />
        <path d="M1011.12 699.59v53.17l-14.61.79a116.37 116.37 0 01-4.89-53z" />
        <path d="M996.51 753.55l-356 19.33-414.33-372.35 8.94-12.29 561.41 321.7 195.09-9.41a116.37 116.37 0 004.89 53zm-359.16-78.61a25.41 25.41 0 10-25.41 25.41 25.41 25.41 0 0025.41-25.41zM714.89 1024.18a115.56 115.56 0 11-49.58 4.46l1.76 29.68a87.12 87.12 0 1049.55-5z" />
        <path d="M714.89 1024.18l1.73 29.12a87.38 87.38 0 00-49.55 5l-1.76-29.68a116.38 116.38 0 0149.58-4.46z" />
        <path d="M704.22 843.75l10.67 180.43a116.38 116.38 0 00-49.58 4.46l-10.77-182z" />
        <path d="M461.47 172.53L669.94 559.82 660.06 570.18 569.24 489.71 446.41 180.53 461.47 172.53z" />
    </g>
</svg>
